PathFileType	4	(X/Y/Z)	Run_200 02
DataRate	CameraRate	NumFrames	NumMarkers	Units	OrigDataRate	OrigDataStartFrame	OrigNumFrames
100	100	8	42	mm	100	323	128
Frame#	Time	LASI			RASI			LPSI			RPSI			RTH1			RTH2			RTH3			LTH1			LTH2			LTH3			RTB1			RTB2			RTB3			LTB1			LTB2			LTB3			RCAL			RTOE			RMT5			LCAL			LTOE			LMT5			LACR			RACR			CLAV			C7			RUA1			RUA2			RUA3			RLEL			RMEL			LUA1			LUA2			LUA3			LLEL			LMEL			RFAsuperior			RFAradius			RFAulna			LFAsuperior			LFAradius			LFAulna			
		X1	Y1	Z1	X2	Y2	Z2	X3	Y3	Z3	X4	Y4	Z4	X5	Y5	Z5	X6	Y6	Z6	X7	Y7	Z7	X8	Y8	Z8	X9	Y9	Z9	X10	Y10	Z10	X11	Y11	Z11	X12	Y12	Z12	X13	Y13	Z13	X14	Y14	Z14	X15	Y15	Z15	X16	Y16	Z16	X17	Y17	Z17	X18	Y18	Z18	X19	Y19	Z19	X20	Y20	Z20	X21	Y21	Z21	X22	Y22	Z22	X23	Y23	Z23	X24	Y24	Z24	X25	Y25	Z25	X26	Y26	Z26	X27	Y27	Z27	X28	Y28	Z28	X29	Y29	Z29	X30	Y30	Z30	X31	Y31	Z31	X32	Y32	Z32	X33	Y33	Z33	X34	Y34	Z34	X35	Y35	Z35	X36	Y36	Z36	X37	Y37	Z37	X38	Y38	Z38	X39	Y39	Z39	X40	Y40	Z40	X41	Y41	Z41	X42	Y42	Z42	

320	4.33	976.992938	1004.324801	-422.941217	965.672835	999.933588	-181.380589	813.540598	1054.084291	-359.130652	807.29597	1051.180887	-259.972034	859.462028	766.23018	-135.78144	897.746677	672.993459	-150.867059	814.376422	596.558983	-166.54024	993.579204	829.517749	-473.35078	1085.665997	758.886033	-448.364438	1072.443436	636.3001369999999	-431.77072	770.776665	378.640682	-231.28956	698.947278	328.043398	-192.679922	671.169159	222.112186	-257.053655	1124.277893	446.709767	-365.38029	1056.822362	375.472189	-425.882616	1066.216545	262.906594	-355.308775	532.907282	171.843734	-288.311621	726.0241140000001	66.601842	-287.82019	660.147237	50.472307	-190.292369	943.3215740000001	157.737867	-341.1345	1156.036734	106.101822	-332.917254	1108.814916	79.912896	-429.627014	968.373689	1485.54906	-459.335685	1011.303024	1478.864994	-165.984874	1071.52911	1404.146919	-308.368635	937.327997	1511.704525	-302.413426	990.3012660000001	1377.040049	-60.137632	924.186617	1317.543191	-50.340178	978.265114	1260.798225	-5.764567	963.2787520000001	1195.486697	30.957671	916.996701	1165.329983	-24.747652	863.0549	1413.568515	-533.594866	807.396802	1372.233114	-483.52588	806.97468	1337.857375	-568.161822	747.747709	1274.089006	-590.43724	725.728491	1256.524802	-520.8938889999999	1069.204205	1183.600546	-16.568384	1150.739191	1182.368159	-127.62066	1144.704077	1116.031249	-104.769231	854.642847	1222.771895	-578.895617	947.547039	1140.775923	-502.936669	916.709606	1104.993711	-553.653182	
321	4.34	978.6503269999999	1007.826297	-422.896915	968.318338	1003.377967	-182.332965	815.148655	1057.902467	-359.095858	809.641282	1054.863653	-259.969202	856.484221	770.9903859999999	-135.807897	891.949528	676.918645	-150.945058	806.111003	602.883241	-166.275361	993.431981	832.452593	-473.280797	1083.402866	759.350997	-448.01902	1068.181975	636.200571	-432.384716	758.944293	385.430839	-229.946715	685.732151	335.902257	-190.848664	657.5301449999999	229.524032	-254.164184	1127.002872	447.457263	-365.409646	1065.698253	370.811522	-425.921032	1084.015666	259.858508	-353.972321	521.509105	182.13855	-286.079927	707.832218	66.35476	-286.894628	641.226701	51.852728	-189.796567	970.378273	144.494307	-338.937537	1186.900969	111.917548	-330.607947	1142.07525	80.18757100000001	-425.861634	969.348833	1489.048932	-459.888828	1013.939071	1482.417464	-167.90128	1072.599913	1408.01803	-309.840909	938.464026	1515.256695	-303.250055	993.321094	1382.163879	-61.006605	926.5807579999999	1323.473088	-49.933229	980.683133	1266.445938	-5.635917	966.064778	1200.803508	31.189538	919.730761	1170.20876	-24.548888	863.28505	1418.530788	-534.169158	808.213405	1377.583231	-483.18964	806.671282	1342.519651	-567.464167	746.5636009999999	1279.021371	-588.745808	725.158802	1261.775647	-518.9044730000001	1071.782147	1190.169254	-16.915369	1152.441871	1190.124788	-128.558384	1147.445117	1123.684703	-105.991902	853.213525	1227.250608	-578.1790569999999	946.791909	1145.369815	-503.050039	915.165752	1109.512686	-553.101893	
322	4.35	980.642534	1010.494406	-422.871406	971.20189	1006.406495	-183.201101	817.028141	1060.887329	-359.086815	812.273371	1057.92977	-260.021876	854.116571	775.362844	-135.695194	887.178439	680.541146	-150.550231	799.322086	608.791659	-166.1296	993.405894	834.33509	-472.974654	1080.491805	758.094478	-448.043359	1062.619533	634.50154	-433.429677	748.742416	391.852915	-228.820052	674.187411	343.647524	-189.02321	643.6149349999999	238.131891	-251.527975	1128.378957	447.152078	-365.47867	1072.847454	366.21865	-425.622506	1099.733715	257.353317	-353.13839	510.7353	193.039725	-283.568961	689.856771	66.66170700000001	-285.934978	622.711085	54.350533	-189.248805	995.5393350000001	133.376141	-337.139038	1213.97923	118.55851	-328.082769	1172.098373	81.380404	-421.767065	970.4513920000001	1492.010946	-460.25783	1016.1349	1485.163901	-169.779976	1073.469409	1411.226092	-311.153418	939.332529	1518.217539	-303.999974	995.741267	1386.575273	-61.876707	928.3868189999999	1329.003755	-49.266485	982.625953	1271.465217	-5.477918	968.204265	1205.43057	31.457134	921.76451	1174.479268	-24.37232	863.847253	1422.804666	-534.848677	809.321827	1382.243701	-482.928548	806.740375	1346.397056	-566.779571	745.87527	1282.991706	-587.1044910000001	725.233429	1266.003227	-516.990499	1073.673603	1195.836275	-17.154597	1153.555319	1196.69327	-129.317399	1149.556123	1130.193494	-106.845444	852.441202	1230.911051	-577.4935829999999	946.7390810000001	1149.320582	-503.114744	914.607003	1113.463267	-552.817511	
323	4.36	982.909035	1012.29511	-422.87727	974.110448	1008.828236	-183.943451	819.177509	1062.988248	-359.062797	815.047581	1060.30731	-260.067415	852.545115	779.0883229999999	-135.494704	883.761307	683.6560500000001	-149.81771	794.556582	613.791463	-166.060164	993.370871	835.058119	-472.846939	1077.055917	755.603513	-448.504173	1055.991865	631.637168	-434.293148	740.389048	397.38483	-227.816708	664.646643	350.815484	-187.32893	630.34048	247.186139	-249.319044	1128.793348	445.854006	-366.019126	1077.831606	361.829858	-425.148554	1112.910599	255.33303	-352.802582	500.541001	204.314425	-281.007715	672.139365	67.613828	-285.086643	604.704253	57.908407	-188.754863	1017.660104	124.400377	-335.495045	1236.488504	125.499718	-325.68351	1197.777465	83.25030700000001	-418.314152	971.586827	1494.361438	-460.391041	1017.710948	1487.200936	-171.401467	1074.16631	1413.67861	-312.32587	939.864862	1520.405913	-304.63386	997.4952039999999	1390.168202	-62.727373	929.721647	1333.567429	-48.792181	984.093559	1275.693837	-5.27845	969.640878	1209.20349	31.723329	923.098731	1177.970423	-24.111229	864.619632	1426.221193	-535.650995	810.549256	1386.035543	-482.727256	807.075912	1349.356602	-566.140204	745.60952	1285.879027	-585.588418	725.759947	1269.154206	-515.204736	1074.948912	1200.498858	-17.282646	1154.135851	1202.009889	-129.883839	1151.07177	1135.493986	-107.369485	852.329986	1233.875546	-577.006654	947.3764640000001	1152.649976	-503.158722	914.987391	1116.805382	-552.708843	
324	4.37	985.199532	1013.177547	-423.075438	976.802694	1010.509633	-184.594971	821.524277	1064.17617	-359.157036	817.751415	1061.926666	-260.143412	852.122848	781.853796	-135.229131	882.242298	685.946039	-148.960135	792.223942	617.3740759999999	-165.883514	993.092899	834.371407	-473.189639	1073.471373	752.156938	-449.500312	1049.158895	627.963463	-434.781219	733.987305	401.59387	-226.888032	657.270037	356.904311	-185.791799	618.901041	255.469822	-247.426093	1128.596887	443.698719	-367.212114	1080.71696	357.591767	-424.691818	1123.142225	253.540118	-352.693085	491.166994	215.66238	-278.570665	654.7666829999999	69.05828	-284.381506	587.3189149999999	62.232559	-188.380736	1035.650832	117.114519	-333.944516	1253.831147	132.114071	-323.783054	1218.311543	85.316422	-415.89626	972.618703	1496.02524	-460.413927	1018.598301	1488.572941	-172.751543	1074.750372	1415.337384	-313.38954	940.054163	1521.670644	-305.175686	998.536997	1392.862182	-63.575487	930.699496	1336.848988	-48.753196	985.038506	1278.998919	-5.024304	970.3718730000001	1212.057294	31.977596	923.74707	1180.581569	-23.728842	865.4657079999999	1428.651241	-536.569531	811.723124	1388.817889	-482.661128	807.598216	1351.292175	-565.627595	745.7088230000001	1287.588323	-584.2933839999999	726.617126	1271.099745	-513.655631	1075.632253	1204.093579	-17.298184	1154.222182	1206.028638	-130.248479	1151.998676	1139.534757	-107.581805	852.824718	1236.199976	-576.931233	948.692045	1155.372596	-503.270912	916.247535	1119.497204	-552.736458	
325	4.38	987.212814	1013.093795	-423.564572	979.102854	1011.376612	-185.202552	823.875706	1064.460668	-359.571218	820.188008	1062.765966	-260.384024	853.126163	783.310483	-134.95823	882.991137	687.0431160000001	-148.279275	792.422401	619.144097	-165.434888	992.42713	832.114515	-474.018138	1070.278506	747.667827	-450.978287	1043.3087	623.753389	-435.180851	729.601227	404.19133	-226.044631	652.066238	361.571347	-184.378849	609.911777	262.15709	-245.649607	1127.948404	440.918607	-368.645121	1081.906773	353.425979	-424.177576	1130.133784	251.588598	-352.423945	482.996733	226.888804	-276.30734	637.818316	70.739149	-283.748853	570.63632	67.05888899999999	-188.080892	1048.621426	110.978783	-332.50767	1265.703518	137.585433	-322.389804	1233.111287	86.89425900000001	-414.07279	973.436177	1496.917265	-460.538831	1018.871473	1489.228144	-173.985543	1075.270062	1416.19747	-314.366609	939.966319	1521.950162	-305.708649	998.850319	1394.601902	-64.449573	931.315004	1338.841988	-49.109936	985.382426	1281.305949	-4.725867	970.428494	1214.011902	32.228589	923.727754	1182.296081	-23.28983	866.264185	1430.025666	-537.5364499999999	812.732935	1390.500317	-482.819758	808.249702	1352.144425	-565.335088	746.134185	1288.06628	-583.3319760000001	727.768861	1271.704826	-512.508962	1075.680263	1206.580877	-17.205023	1153.833732	1208.714413	-130.394875	1152.313511	1142.271826	-107.481481	853.809159	1237.774948	-577.290581	950.636853	1157.472781	-503.571237	918.3176089999999	1121.483055	-552.9558489999999	
326	4.39	988.891841	1012.022924	-424.193101	980.97856	1011.433483	-185.755792	826.007128	1063.846438	-360.359726	822.255395	1062.811694	-260.904445	855.541598	783.176404	-134.806997	885.854635	686.710959	-148.095921	794.980573	618.930488	-164.689396	991.506206	828.465059	-475.148212	1067.922808	742.013461	-452.624675	1039.30035	619.261075	-435.720071	727.2831660000001	405.083355	-225.262217	648.96396	364.780081	-183.026423	603.263825	267.188837	-243.863682	1126.765982	437.760361	-369.474095	1081.767691	349.279592	-423.36008	1133.648018	249.09294	-351.680645	476.352835	237.97505	-274.123335	621.383289	72.51936000000001	-283.109511	554.735196	72.292738	-187.720478	1055.931327	105.928846	-330.902139	1272.026157	140.534729	-321.071791	1241.368812	87.104736	-412.294307	974.018992	1496.945822	-460.932747	1018.700265	1489.074268	-175.204726	1075.734449	1416.260058	-315.254252	939.71992	1521.292283	-306.346618	998.467301	1395.334278	-65.3553	931.4184760000001	1339.58531	-49.816399	985.040076	1282.598898	-4.424517	969.7973	1215.100992	32.468107	923.0368539999999	1183.143307	-22.907314	866.951098	1430.311792	-538.454481	813.579031	1390.994341	-483.214772	808.996415	1351.884289	-565.323768	746.878004	1287.301588	-582.810286	729.2065720000001	1270.948781	-511.891027	1075.029055	1207.933468	-16.995382	1152.980792	1210.038267	-130.290751	1151.97671	1143.668693	-107.058037	855.169713	1238.401014	-577.862214	953.143445	1158.913707	-504.163642	921.107965	1122.698596	-553.438659	
327	4.4	990.512998	1009.972218	-424.697144	982.5179000000001	1010.759815	-186.191295	827.843424	1062.258091	-361.368785	823.987646	1061.967209	-261.703246	859.072706	781.38307	-134.898314	890.289363	684.984071	-148.517208	799.602323	616.820913	-163.755927	990.735045	823.878384	-476.320875	1066.596747	735.53035	-454.02538	1037.203142	614.660287	-436.087801	727.038921	404.388634	-224.448687	647.860537	366.755942	-181.664709	598.587536	270.969085	-242.029191	1124.734323	434.223787	-368.994947	1080.300553	344.995246	-422.074694	1133.420727	245.674171	-350.29538	471.460604	249.005007	-271.855118	605.61511	74.45645500000001	-282.434859	539.745215	77.94915	-187.176161	1057.230789	102.413615	-328.496943	1272.804803	138.837284	-319.365849	1242.091908	84.772109	-410.622766	974.440207	1496.038734	-461.648482	1018.222317	1488.04353	-176.336591	1076.112174	1415.521077	-316.021326	939.4391460000001	1519.81297	-307.186401	997.448997	1394.999729	-66.26383300000001	930.793132	1339.07354	-50.897858	983.937619	1282.892647	-4.176738	968.392298	1215.315767	32.655308	921.646685	1183.143485	-22.679696	867.550329	1429.472325	-539.286058	814.344786	1390.161182	-483.796739	809.845622	1350.49461	-565.62592	747.969422	1285.315945	-582.816274	730.914041	1268.923163	-511.832511	1073.672111	1208.133563	-16.629057	1151.671223	1209.974339	-129.895924	1150.948041	1143.695118	-106.303062	856.858832	1237.942053	-578.418668	956.149566	1159.653003	-505.097573	924.516303	1123.07446	-554.173459	
